<?xml version="1.0" standalone="no"?>
<!DOCTYPE svg PUBLIC "-//W3C//DTD SVG 20010904//EN"
 "http://www.w3.org/TR/2001/REC-SVG-20010904/DTD/svg10.dtd">
<svg version="1.0" xmlns="http://www.w3.org/2000/svg"
 width="332.000000pt" height="332.000000pt" viewBox="0 0 332.000000 332.000000"
 preserveAspectRatio="xMidYMid meet">
<metadata>
Created by potrace 1.11, written by Peter Selinger 2001-2013
</metadata>
<g transform="translate(0.000000,332.000000) scale(0.100000,-0.100000)"
fill="#000000" stroke="none">
<path d="M0 1655 l0 -1525 1660 0 1660 0 0 1525 0 1525 -1660 0 -1660 0 0
-1525z m1842 1360 c233 -38 439 -126 625 -266 219 -166 382 -392 471 -654 55
-161 67 -241 67 -445 0 -141 -4 -205 -18 -270 -41 -192 -130 -394 -244 -552
-74 -102 -225 -247 -333 -319 -243 -162 -493 -239 -775 -239 -361 0 -691 134
-955 386 -199 191 -337 443 -397 724 -25 120 -25 420 0 540 93 435 361 779
762 977 108 54 242 95 400 122 80 14 302 12 397 -4z"/>
<path d="M744 1876 c-91 -40 -148 -127 -148 -226 0 -106 56 -186 158 -225 118
-45 261 28 298 151 l12 44 573 0 c508 0 573 -2 573 -15 0 -31 51 -114 85 -141
73 -56 159 -68 235 -33 152 69 196 251 89 373 -76 86 -175 108 -274 62 -72
-33 -135 -116 -135 -177 0 -18 -19 -19 -575 -19 -571 0 -575 0 -575 20 0 32
-28 92 -58 124 -61 65 -183 94 -258 62z"/>
</g>
</svg>
